nColumns=19
nRows=112
DataType=double
version=3
OpenSimVersion=4.1
endheader
time	ground_force_1_vx	ground_force_1_vy	ground_force_1_vz	ground_force_1_px	ground_force_1_py	ground_force_1_pz	ground_force_1_mx	ground_force_1_my	ground_force_1_mz	ground_force_2_vx	ground_force_2_vy	ground_force_2_vz	ground_force_2_px	ground_force_2_py	ground_force_2_pz	ground_force_2_mx	ground_force_2_my	ground_force_2_mz
0	-2.90429	138.663	7.53298	0.0948754	0.006	-0.146009	0	0.577021	0	0	0	0	0.716692	0	-0.194513	0	0	0
0.01	-8.79409	179.409	7.76106	0.0988664	0.006	-0.146155	0	0.585606	0	0	0	0	0.716692	0	-0.194513	0	0	0
0.02	-16.4764	225.431	7.81105	0.102937	0.006	-0.146209	0	0.599915	0	0	0	0	0.716692	0	-0.194513	0	0	0
0.03	-25.8189	275.957	7.56676	0.106569	0.006	-0.146161	0	0.614858	0	0	0	0	0.716692	0	-0.194513	0	0	0
0.04	-36.4197	329.956	6.87028	0.109908	0.006	-0.146019	0	0.625829	0	0	0	0	0.716692	0	-0.194513	0	0	0
0.05	-47.765	386.096	5.55488	0.113045	0.006	-0.145787	0	0.629728	0	0	0	0	0.716692	0	-0.194513	0	0	0
0.06	-59.3146	442.815	3.49139	0.116032	0.006	-0.145476	0	0.625484	0	0	0	0	0.716692	0	-0.194513	0	0	0
0.07	-70.5151	498.478	0.637289	0.118897	0.006	-0.145098	0	0.614401	0	0	0	0	0.716692	0	-0.194513	0	0	0
0.08	-80.837	551.53	-2.92997	0.121647	0.006	-0.144677	0	0.600485	0	0	0	0	0.716692	0	-0.194513	0	0	0
0.09	-89.8202	600.623	-7.01262	0.124277	0.006	-0.144237	0	0.590014	0	0	0	0	0.716692	0	-0.194513	0	0	0
0.1	-97.0909	644.681	-11.3251	0.126772	0.006	-0.143801	0	0.589579	0	0	0	0	0.716692	0	-0.194513	0	0	0
0.11	-102.371	682.929	-15.5631	0.129122	0.006	-0.14339	0	0.602216	0	0	0	0	0.716692	0	-0.194513	0	0	0
0.12	-105.517	714.906	-19.4823	0.131322	0.006	-0.143013	0	0.623666	0	0	0	0	0.716692	0	-0.194513	0	0	0
0.13	-106.54	740.463	-22.9387	0.133385	0.006	-0.142672	0	0.643057	0	0	0	0	0.716692	0	-0.194513	0	0	0
0.14	-105.576	759.721	-25.8824	0.135332	0.006	-0.142361	0	0.647342	0	0	0	0	0.716692	0	-0.194513	0	0	0
0.15	-102.851	773.01	-28.3213	0.137193	0.006	-0.142073	0	0.626031	0	0	0	0	0.716692	0	-0.194513	0	0	0
0.16	-98.645	780.821	-30.2831	0.139004	0.006	-0.1418	0	0.573654	0	0	0	0	0.716692	0	-0.194513	0	0	0
0.17	-93.2609	783.777	-31.7951	0.140805	0.006	-0.141536	0	0.489717	0	0	0	0	0.716692	0	-0.194513	0	0	0
0.18	-87.0052	782.591	-32.8809	0.142639	0.006	-0.141277	0	0.377012	0	0	0	0	0.716692	0	-0.194513	0	0	0
0.19	-80.1761	778.014	-33.5663	0.144557	0.006	-0.141018	0	0.239575	0	0	0	0	0.716692	0	-0.194513	0	0	0
0.2	-73.0552	770.799	-33.8819	0.14661	0.006	-0.140757	0	0.081807	0	0	0	0	0.716692	0	-0.194513	0	0	0
0.21	-65.9018	761.681	-33.8638	0.148854	0.006	-0.14049	0	-0.092062	0	0	0	0	0.716692	0	-0.194513	0	0	0
0.22	-58.95	751.364	-33.552	0.151348	0.006	-0.140214	0	-0.278461	0	0	0	0	0.716692	0	-0.194513	0	0	0
0.23	-52.4033	740.52	-32.9877	0.154147	0.006	-0.139928	0	-0.474678	0	0	0	0	0.716692	0	-0.194513	0	0	0
0.24	-46.4208	729.775	-32.2141	0.157297	0.006	-0.139629	0	-0.679156	0	0	0	0	0.716692	0	-0.194513	0	0	0
0.25	-41.102	719.681	-31.2764	0.160832	0.006	-0.139317	0	-0.891479	0	0	0	0	0.716692	0	-0.194513	0	0	0
0.26	-36.4796	710.676	-30.2219	0.164767	0.006	-0.138994	0	-1.11201	0	0	0	0	0.716692	0	-0.194513	0	0	0
0.27	-32.526	703.06	-29.1003	0.169096	0.006	-0.138659	0	-1.34171	0	0	0	0	0.716692	0	-0.194513	0	0	0
0.28	-29.1732	696.993	-27.964	0.173797	0.006	-0.138314	0	-1.58166	0	0	0	0	0.716692	0	-0.194513	0	0	0
0.29	-26.3333	692.513	-26.8665	0.17884	0.006	-0.137959	0	-1.83241	0	0	0	0	0.716692	0	-0.194513	0	0	0
0.3	-23.9149	689.581	-25.8601	0.184183	0.006	-0.137595	0	-2.0932	0	0	0	0	0.716692	0	-0.194513	0	0	0
0.31	-21.8269	688.123	-24.9949	0.189782	0.006	-0.137226	0	-2.3614	0	0	0	0	0.716692	0	-0.194513	0	0	0
0.32	-19.9768	688.07	-24.3172	0.195588	0.006	-0.136856	0	-2.63247	0	0	0	0	0.716692	0	-0.194513	0	0	0
0.33	-18.2704	689.378	-23.8663	0.201546	0.006	-0.136489	0	-2.90033	0	0	0	0	0.716692	0	-0.194513	0	0	0
0.34	-16.6136	692.032	-23.6681	0.207602	0.006	-0.136134	0	-3.1579	0	0	0	0	0.716692	0	-0.194513	0	0	0
0.35	-14.915	696.042	-23.7304	0.213697	0.006	-0.135799	0	-3.39788	0	0	0	0	0.716692	0	-0.194513	0	0	0
0.36	-13.0911	701.439	-24.0405	0.219777	0.006	-0.135495	0	-3.61354	0	0	0	0	0.716692	0	-0.194513	0	0	0
0.37	-11.071	708.267	-24.5663	0.225792	0.006	-0.135234	0	-3.79962	0	0	0	0	0.716692	0	-0.194513	0	0	0
0.38	-8.79837	716.557	-25.2604	0.231698	0.006	-0.135027	0	-3.9527	0	0	0	0	0.716692	0	-0.194513	0	0	0
0.39	-6.22819	726.319	-26.0662	0.237456	0.006	-0.134884	0	-4.07135	0	0	0	0	0.716692	0	-0.194513	0	0	0
0.4	-3.32342	737.517	-26.925	0.243036	0.006	-0.134815	0	-4.15589	0	0	0	0	0.716692	0	-0.194513	0	0	0
0.41	-0.052846	750.065	-27.7823	0.248413	0.006	-0.134826	0	-4.20787	0	0	0	0	0.716692	0	-0.194513	0	0	0
0.42	3.60965	763.81	-28.592	0.253571	0.006	-0.134919	0	-4.22941	0	0	0	0	0.716692	0	-0.194513	0	0	0
0.43	7.68479	778.524	-29.3163	0.258499	0.006	-0.135095	0	-4.22262	0	0	0	0	0.716692	0	-0.194513	0	0	0
0.44	12.1867	793.898	-29.9248	0.263193	0.006	-0.13535	0	-4.18947	0	0	0	0	0.716692	0	-0.194513	0	0	0
0.45	17.1207	809.524	-30.3917	0.267653	0.006	-0.13568	0	-4.13178	0	0	0	0	0.716692	0	-0.194513	0	0	0
0.46	22.4797	824.88	-30.6927	0.271888	0.006	-0.136078	0	-4.05122	0	0	0	0	0.716692	0	-0.194513	0	0	0
0.47	28.2421	839.322	-30.8014	0.275909	0.006	-0.136536	0	-3.94954	0	0	0	0	0.716692	0	-0.194513	0	0	0
0.48	34.3717	852.087	-30.6853	0.279734	0.006	-0.137048	0	-3.8293	0	0	0	0	0.716692	0	-0.194513	0	0	0
0.49	40.8159	862.318	-30.3035	0.283384	0.006	-0.137607	0	-3.6946	0	0	0	0	0.716692	0	-0.194513	0	0	0
0.5	47.5012	869.11	-29.6096	0.286879	0.006	-0.138211	0	-3.55132	0	0	0	0	0.716692	0	-0.194513	0	0	0
0.51	54.3274	871.563	-28.5568	0.29024	0.006	-0.138857	0	-3.40679	0	0	0	0	0.716692	0	-0.194513	0	0	0
0.52	61.1605	868.837	-27.1066	0.293486	0.006	-0.139543	0	-3.26897	0	1.94469	20.3113	-5.06404	0.716692	0.006	-0.194513	0	0.423702	0
0.53	67.83	860.203	-25.2384	0.296636	0.006	-0.140267	0	-3.14507	0	0.29368	41.779	-5.73927	0.757996	0.006	-0.216088	0	0.586727	0
0.54	74.127	845.079	-22.9556	0.299706	0.006	-0.141026	0	-3.04035	0	-2.2227	69.1019	-6.41489	0.779954	0.006	-0.226842	0	0.675525	0
0.55	79.8041	823.064	-20.2879	0.302715	0.006	-0.141816	0	-2.95732	0	-5.78454	102.717	-7.0403	0.79225	0.006	-0.232325	0	0.746418	0
0.56	84.5849	793.961	-17.2922	0.305687	0.006	-0.142633	0	-2.89549	0	-10.574	142.779	-7.54778	0.800432	0.006	-0.235576	0	0.811927	0
0.57	88.1837	757.809	-14.0521	0.308646	0.006	-0.143472	0	-2.85143	0	-16.7931	189.055	-7.85395	0.806543	0.006	-0.237698	0	0.873995	0
0.58	90.331	714.916	-10.679	0.311621	0.006	-0.144329	0	-2.81879	0	-24.6537	240.877	-7.86802	0.811515	0.006	-0.239191	0	0.930294	0
0.59	90.8044	665.882	-7.31087	0.314643	0.006	-0.145198	0	-2.78861	0	-34.1941	297.195	-7.48651	0.815825	0.006	-0.240319	0	0.977347	0
0.6	89.4639	611.614	-4.10917	0.317746	0.006	-0.146071	0	-2.74963	0	-45.1413	356.714	-6.59464	0.819724	0.006	-0.241232	0	1.01057	0
0.61	86.2836	553.308	-1.24486	0.320965	0.006	-0.146937	0	-2.6895	0	-57.0227	417.922	-5.09963	0.823345	0.006	-0.242018	0	1.02355	0
0.62	81.3668	492.407	1.12637	0.324338	0.006	-0.147786	0	-2.59716	0	-69.3073	479.112	-2.96633	0.826753	0.006	-0.242725	0	1.00888	0
0.63	74.9389	430.514	2.89392	0.327908	0.006	-0.148604	0	-2.46558	0	-81.423	538.514	-0.23683	0.829974	0.006	-0.243375	0	0.959766	0
0.64	67.3228	369.266	4.01627	0.331733	0.006	-0.14938	0	-2.29345	0	-92.7711	594.417	2.96378	0.833003	0.006	-0.243974	0	0.871065	0
0.65	58.9036	310.219	4.53025	0.335899	0.006	-0.15011	0	-2.08517	0	-102.777	645.283	6.44026	0.835819	0.006	-0.244521	0	0.740616	0
0.66	50.094	254.736	4.54028	0.340535	0.006	-0.150801	0	-1.84961	0	-110.927	689.854	9.96273	0.83839	0.006	-0.245011	0	0.571478	0
0.67	41.3106	203.895	4.18801	0.345841	0.006	-0.151466	0	-1.59816	0	-116.823	727.256	13.3244	0.840687	0.006	-0.245441	0	0.373754	0
0.68	32.9366	158.436	3.61897	0.352144	0.006	-0.152133	0	-1.34267	0	-120.258	757.059	16.3851	0.842699	0.006	-0.245812	0	0.163525	0
0.69	25.2791	118.761	2.95963	0.360018	0.006	-0.152839	0	-1.09381	0	-121.211	779.265	19.0718	0.844425	0.006	-0.246127	0	-0.041538	0
0.7	18.5416	84.9657	2.30402	0.370581	0.006	-0.153644	0	-0.860502	0	-119.813	794.222	21.3607	0.845877	0.006	-0.24639	0	-0.226078	0
0.71	12.8237	56.9055	1.71163	0.386331	0.006	-0.154659	0	-0.650184	0	-116.306	802.533	23.2613	0.847075	0.006	-0.246606	0	-0.378448	0
0.72	8.13572	34.2533	1.21247	0.414146	0.006	-0.156165	0	-0.470374	0	-111.006	804.983	24.8043	0.848045	0.006	-0.246779	0	-0.490983	0
0.73	0	0	0	0.461233	0	-0.157759	0	0	0	-104.276	802.483	26.0275	0.848818	0.006	-0.24691	0	-0.559675	0
0.74	0	0	0	0.488672	0	-0.156962	0	0	0	-96.5021	796.007	26.9676	0.849433	0.006	-0.247003	0	-0.583424	0
0.75	0	0	0	0.516111	0	-0.156164	0	0	0	-88.067	786.54	27.6537	0.849933	0.006	-0.247058	0	-0.563382	0
0.76	0	0	0	0.54355	0	-0.155367	0	0	0	-79.3271	775.042	28.105	0.850362	0.006	-0.247076	0	-0.502375	0
0.77	0	0	0	0.570989	0	-0.15457	0	0	0	-70.5913	762.397	28.33	0.850767	0.006	-0.247061	0	-0.404506	0
0.78	0	0	0	0.598429	0	-0.153773	0	0	0	-62.1059	749.378	28.3277	0.851187	0.006	-0.247013	0	-0.274825	0
0.79	0	0	0	0.625868	0	-0.152976	0	0	0	-54.0456	736.616	28.0939	0.851661	0.006	-0.246936	0	-0.118668	0
0.8	0	0	0	0.653307	0	-0.152178	0	0	0	-46.5096	724.592	27.6294	0.852218	0.006	-0.246834	0	0.059036	0
0.81	0	0	0	0.680746	0	-0.151381	0	0	0	-39.5298	713.63	26.9482	0.85288	0.006	-0.246712	0	0.254298	0
0.82	0	0	0	0.708185	0	-0.150584	0	0	0	-33.0892	703.915	26.0834	0.853666	0.006	-0.246579	0	0.463988	0
0.83	0	0	0	0.735624	0	-0.149787	0	0	0	-27.1449	695.514	25.0892	0.854594	0.006	-0.246444	0	0.685617	0
0.84	0	0	0	0.763064	0	-0.14899	0	0	0	-21.6472	688.414	24.0358	0.855683	0.006	-0.246319	0	0.917098	0
0.85	0	0	0	0.790503	0	-0.148192	0	0	0	-16.5505	682.556	23.0011	0.856958	0.006	-0.246214	0	1.15647	0
0.86	0	0	0	0.817942	0	-0.147395	0	0	0	-11.8173	677.878	22.0601	0.858451	0.006	-0.24614	0	1.40182	0
0.87	0	0	0	0.845381	0	-0.146598	0	0	0	-7.41847	674.337	21.2779	0.860196	0.006	-0.246105	0	1.65122	0
0.88	0	0	0	0.87282	0	-0.145801	0	0	0	-3.32844	671.927	20.705	0.862232	0.006	-0.246113	0	1.90283	0
0.89	0	0	0	0.900259	0	-0.145004	0	0	0	0.478667	670.677	20.3755	0.864602	0.006	-0.246164	0	2.15489	0
0.9	0	0	0	0.927699	0	-0.144206	0	0	0	4.03101	670.652	20.3059	0.867346	0.006	-0.246256	0	2.406	0
0.91	0	0	0	0.955138	0	-0.143409	0	0	0	7.35952	671.945	20.4973	0.870504	0.006	-0.246382	0	2.6553	0
0.92	0	0	0	0.982577	0	-0.142612	0	0	0	10.4978	674.671	20.9386	0.874109	0.006	-0.24653	0	2.90252	0
0.93	0	0	0	1.01002	0	-0.141815	0	0	0	13.4815	678.955	21.6108	0.878189	0.006	-0.246688	0	3.14782	0
0.94	0	0	0	1.03746	0	-0.141018	0	0	0	16.3489	684.923	22.4913	0.882757	0.006	-0.246843	0	3.39166	0
0.95	0	0	0	1.06489	0	-0.14022	0	0	0	19.1405	692.693	23.5566	0.887814	0.006	-0.24698	0	3.63435	0
0.96	0	0	0	1.09233	0	-0.139423	0	0	0	21.8982	702.36	24.7819	0.893346	0.006	-0.247084	0	3.87571	0
0.97	0	0	0	1.11977	0	-0.138626	0	0	0	24.6642	713.984	26.1408	0.899319	0.006	-0.247145	0	4.11486	0
0.98	0	0	0	1.14721	0	-0.137829	0	0	0	27.4804	727.572	27.6024	0.905682	0.006	-0.24715	0	4.3499	0
0.99	0	0	0	1.17465	0	-0.137032	0	0	0	30.3887	743.057	29.1307	0.91237	0.006	-0.247091	0	4.57777	0
1	0	0	0	1.20209	0	-0.136235	0	0	0	33.4305	760.279	30.683	0.919304	0.006	-0.246961	0	4.79428	0
1.01	0	0	0	1.22953	0	-0.135437	0	0	0	36.6468	778.959	32.2113	0.926396	0.006	-0.246757	0	4.99431	0
1.02	0	0	0	1.25697	0	-0.13464	0	0	0	40.0786	798.686	33.6623	0.933553	0.006	-0.246478	0	5.17234	0
1.03	0	0	0	1.28441	0	-0.133843	0	0	0	43.7663	818.905	34.978	0.940687	0.006	-0.246125	0	5.32293	0
1.04	0	0	0	1.31185	0	-0.133046	0	0	0	47.7465	838.915	36.0956	0.947715	0.006	-0.245703	0	5.44163	0
1.05	0	0	0	1.33929	0	-0.132249	0	0	0	52.0497	857.884	36.9474	0.954567	0.006	-0.245214	0	5.52571	0
1.06	0	0	0	1.36673	0	-0.131451	0	0	0	56.6959	874.879	37.4623	0.961188	0.006	-0.244664	0	5.57483	0
1.07	0	0	0	1.39416	0	-0.130654	0	0	0	61.6862	888.898	37.5691	0.967535	0.006	-0.244056	0	5.59146	0
1.08	0	0	0	1.4216	0	-0.129857	0	0	0	66.9914	898.92	37.2025	0.973584	0.006	-0.243392	0	5.58071	0
1.09	0	0	0	1.44904	0	-0.12906	0	0	0	72.5404	903.938	36.3115	0.979325	0.006	-0.242675	0	5.54931	0
1.1	8.41081	34.2064	1.52541	1.46946	0.006	-0.12888	0	0.149952	0	78.2129	903.02	34.8637	0.984762	0.006	-0.241908	0	5.50465	0
1.11	7.14745	56.1731	1.85591	1.47961	0.006	-0.128729	0	0.197888	0	83.8361	895.361	32.8489	0.989912	0.006	-0.241093	0	5.45359	0
